# xmcd CD database file
#
# Track frame offsets:
#	187
#	17162
#	35745
#	59647
#	76592
#	95185
#
# Disc length: 1550 seconds
#
# Revision: 1
# Processed by: cddbd v1.5.1PL0 Copyright (c) Steve Scherf et al.
# Submitted via: CDex 1.51
#
DISCID=4a060c06
DTITLE=松田聖子 - Guardian Angel
DYEAR=1996
DGENRE=JPop
TTITLE0=Save The Best For Last (Japanese Version)
TTITLE1=I'll Never Get Over You Getting Over Me (Japanese Version)
TTITLE2=If Only... （もし、もう一度戻れるなら）
TTITLE3=Save The Best For Last
TTITLE4=I'll Never Get Over You Getting Over Me
TTITLE5=さよならの瞬間
EXTD=YEAR: 1996
EXTT0=
EXTT1=
EXTT2=
EXTT3=
EXTT4=
EXTT5=
PLAYORDER=
